<svg xmlns="http://www.w3.org/2000/svg" viewBox="0 0 184.67 184.67"><defs><style>.cls-1{fill:#c02026;}.cls-2{font-size:25px;font-family:MyriadPro-Light, Myriad Pro;font-weight:300;letter-spacing:0.05em;}.cls-2,.cls-3{fill:#fff;}</style></defs><g id="Layer_2" data-name="Layer 2"><g id="Layer_1-2" data-name="Layer 1"><rect class="cls-1" width="184.67" height="184.67"/><text class="cls-2" transform="translate(42.67 155.74)">Branding</text><path class="cls-3" d="M123.12,63.93a1.23,1.23,0,0,1-1.45.53c-.38-.08-.79-.07-1.17-.16a.82.82,0,0,1-.66-1,.8.8,0,0,1,.84-.77,9.34,9.34,0,0,1,1.83.22c.23.05.41.29.61.44Z"/><path class="cls-3" d="M63.38,63v42.43H88.94V102H78.57a2.08,2.08,0,0,1-2.26-1.41c0-.13-.36-.25-.56-.25-2.66,0-5.33,0-8,0-.26,0-.6,0-.75-.12a1.35,1.35,0,0,1-.47-.92c0-.28.43-.54.72-.74.13-.09.39,0,.59,0h8.34V96.05H67.92a4.87,4.87,0,0,1-.54,0,.88.88,0,0,1-.89-.86.9.9,0,0,1,.89-.94c.42,0,.84,0,1.26,0,2.47,0,4.93,0,7.4,0a1.08,1.08,0,0,0,.7-.29,2.36,2.36,0,0,1,1.76-.63c3.23,0,6.45,0,9.68,0h.76V90.39c-1.17-.4-2.34-.77-3.49-1.2a8.3,8.3,0,0,1-1.7-.88,3.09,3.09,0,0,0-1.91-.52c-4.83,0-9.66,0-14.49,0-.2,0-.4,0-.6,0a1.46,1.46,0,0,1-1.48-1.56q0-6.23,0-12.44a1.45,1.45,0,0,1,1.59-1.57H85.49a1.49,1.49,0,0,1,1.61,1.5c0,.21,0,.43,0,.73L89,74V63H73.18a3,3,0,0,1-.6,0,.85.85,0,0,1-.74-.94.82.82,0,0,1,.79-.83,3.85,3.85,0,0,1,.48,0H88.92c1.38,0,1.87.49,1.87,1.88,0,3.35,0,6.69,0,10v.69c.71,0,1.39.07,2,.14a14.87,14.87,0,0,1,11.68,7.46,1.49,1.49,0,0,1,0,1.6,14.8,14.8,0,0,1-10.44,7.27c-1,.19-2.14.23-3.25.34V93.3h.72c4.81,0,9.62,0,14.43,0a6.24,6.24,0,0,1,3.16.8c1.33.74,2.67,1.46,4,2.18a1.55,1.55,0,0,1,1,1.38,1.53,1.53,0,0,1-1,1.37l-4.22,2.3a5.65,5.65,0,0,1-2.76.69H90.8v3.3c0,1.44-.52,2-2,2H63.48c-1.4,0-1.92-.53-1.92-1.92V63c0-1.38.49-1.88,1.87-1.88h4.81c.66,0,1.06.33,1.08.86s-.41.94-1.08.94Zm21.83,11.1H67.12V85.89H80.56c-.65-.9-1.3-1.79-1.94-2.69a1.71,1.71,0,0,1,0-2.06,15,15,0,0,1,5.86-5.54C85.35,75.12,85.35,75.13,85.21,74.06Zm6.28,1.58a13.29,13.29,0,0,0-11.07,6,.76.76,0,0,0,0,1,12.82,12.82,0,0,0,10,5.91c5.19.4,9.24-1.7,12.21-6a.72.72,0,0,0,0-.95A13.27,13.27,0,0,0,91.49,75.64ZM105.15,95.2H83.83v1.55h13a4.87,4.87,0,0,1,.54,0,.87.87,0,0,1,.79.91.85.85,0,0,1-.81.88c-.2,0-.4,0-.6,0H83.84v1.56h21.31V98.56c-1.24,0-2.44,0-3.63,0a.89.89,0,0,1-1-.87.91.91,0,0,1,1-.92c.9,0,1.8,0,2.7,0h.92Zm-27,0v4.95h3.81V95.18Zm28.91,5c.62-.31,1.16-.55,1.68-.83a.55.55,0,0,0,.22-.38q0-1.35,0-2.7a.37.37,0,0,0-.14-.29c-.55-.29-1.12-.56-1.76-.88Zm4.82-2.55-1.07-.58v1.18Z"/><path class="cls-3" d="M112.18,77.51c0,.5,0,.9,0,1.3a1.43,1.43,0,0,1-1.24,1.47,21,21,0,0,1-3.17,0,1.39,1.39,0,0,1-1.25-1.4c0-.44,0-.87,0-1.37h-1.27a1.37,1.37,0,0,1-1.51-1.37q-.08-2.13,0-4.26a1.86,1.86,0,0,1,.47-1c.43-.5.42-.9-.08-1.27a8.9,8.9,0,0,1-3.9-9.3,9.28,9.28,0,0,1,15.39-5.17c.57.5.63,1,.22,1.46s-.9.37-1.43-.11A7.48,7.48,0,0,0,102.13,60a7.28,7.28,0,0,0,2.77,7.88c.9.64,1.8,1.17,1.4,2.54h2.09v-3.6a2.71,2.71,0,0,1-1.63-2.9c0-.48,0-1,0-1.45a2.57,2.57,0,0,1,5.14-.09,19.46,19.46,0,0,1,0,2.16,2.37,2.37,0,0,1-1.26,2.06.71.71,0,0,0-.41.75c0,1,0,2,0,3.08h2.12c-.42-1.38.54-1.89,1.43-2.57a7.29,7.29,0,0,0,2.8-7.72,1.78,1.78,0,0,1,.14-1.12.87.87,0,0,1,.82-.26,1.34,1.34,0,0,1,.72.76A8.69,8.69,0,0,1,117,67.19a17.19,17.19,0,0,1-2.45,2.45.77.77,0,0,0-.08,1.2,2.22,2.22,0,0,1,.51,1.15c.06,1.34,0,2.68,0,4a1.42,1.42,0,0,1-1.52,1.49Zm-6.61-1.86h7.54V72.36h-7.54Zm4.51-12.13c0-.34,0-.68,0-1a.75.75,0,0,0-1.49,0c0,.66,0,1.32,0,2a.75.75,0,0,0,1.49,0C110.11,64.16,110.08,63.84,110.08,63.52Zm.26,15v-.93h-2v.93Z"/><path class="cls-3" d="M76.19,90h8.47c.51,0,1,.08,1.16.64a.89.89,0,0,1-.66,1.16,2.89,2.89,0,0,1-.66,0H67.87c-.1,0-.2,0-.3,0-.69,0-1.09-.37-1.08-.94s.38-.88,1.06-.89c1.34,0,2.68,0,4,0Z"/><path class="cls-3" d="M76.21,67.29h4.33c.73,0,1.1.31,1.1.89s-.38.91-1.09.91H71.78c-.69,0-1.09-.36-1.08-.93s.4-.87,1.07-.87C73.25,67.28,74.73,67.29,76.21,67.29Z"/><path class="cls-3" d="M115.56,50.54a14,14,0,0,1-1,1.81c-.14.19-.7.21-1,.12a.74.74,0,0,1-.43-1,6.31,6.31,0,0,1,.75-1.62,1.24,1.24,0,0,1,1-.35C115.33,49.53,115.51,49.93,115.56,50.54Z"/><path class="cls-3" d="M104.13,49.42c.12,0,.39.08.46.22a11.84,11.84,0,0,1,.92,2.1c.06.2-.33.65-.61.81a.74.74,0,0,1-1-.39,9.86,9.86,0,0,1-.69-1.52A.92.92,0,0,1,104.13,49.42Z"/><path class="cls-3" d="M98.26,59.6a14.17,14.17,0,0,1-1.78-.66.76.76,0,0,1-.33-1,.83.83,0,0,1,1-.56,10.92,10.92,0,0,1,1.65.53.84.84,0,0,1,.48,1.05C99.17,59.36,98.85,59.57,98.26,59.6Z"/><path class="cls-3" d="M122.59,58.46a2.5,2.5,0,0,1-.66.62,7.29,7.29,0,0,1-1.41.47A.92.92,0,0,1,119.4,59a.89.89,0,0,1,.52-1.14,10.14,10.14,0,0,1,1.59-.51C122.08,57.21,122.61,57.68,122.59,58.46Z"/><path class="cls-3" d="M96.6,64.51a.92.92,0,0,1-1-.8.85.85,0,0,1,.79-1,12.2,12.2,0,0,1,1.48-.18.88.88,0,0,1,1,.76.83.83,0,0,1-.7,1C97.61,64.41,97.07,64.45,96.6,64.51Z"/><path class="cls-3" d="M97.27,68.69c0-.73,1.93-1.86,2.58-1.53a.84.84,0,0,1,.28,1.39,7.31,7.31,0,0,1-1.8,1A.84.84,0,0,1,97.27,68.69Z"/><path class="cls-3" d="M99.6,52.54a3.12,3.12,0,0,1,.65.3,14,14,0,0,1,1.16,1,.86.86,0,0,1,.07,1.24.9.9,0,0,1-1.29.1,5.66,5.66,0,0,1-1.13-1.05,1.33,1.33,0,0,1-.16-1C99,52.88,99.37,52.72,99.6,52.54Z"/><path class="cls-3" d="M117.75,55.46c-.18-.13-.54-.28-.64-.54a1.08,1.08,0,0,1,.08-.93,5.3,5.3,0,0,1,1.38-1.21,1.08,1.08,0,0,1,1,.12c.22.2.36.81.22,1a12.6,12.6,0,0,1-1.6,1.49C118.12,55.43,118,55.42,117.75,55.46Z"/><path class="cls-3" d="M119.21,66.87a20.39,20.39,0,0,1,2.05,1.44c.15.13.09.73-.09,1a1.06,1.06,0,0,1-.92.29,5.52,5.52,0,0,1-1.64-1,1.05,1.05,0,0,1-.21-1C118.49,67.37,118.87,67.18,119.21,66.87Z"/><path class="cls-3" d="M110.24,50c0,.26,0,.52,0,.78a.88.88,0,0,1-.93.82.83.83,0,0,1-.86-.83c0-.53,0-1.07,0-1.61a.86.86,0,0,1,.89-.85.89.89,0,0,1,.9.86c0,.27,0,.55,0,.83Z"/><path class="cls-3" d="M91.45,87.5a5.35,5.35,0,1,1,.14-10.7,5.35,5.35,0,0,1-.14,10.7Zm-2.15-8a3.43,3.43,0,0,0-1.14,3.85,3.55,3.55,0,0,0,3.34,2.38,3.21,3.21,0,0,0,3-1.85A5.48,5.48,0,0,1,89.3,79.46ZM95,81.92a3.35,3.35,0,0,0-3.81-3.2A3.33,3.33,0,0,0,95,81.92Z"/></g></g></svg>