<svg xmlns="http://www.w3.org/2000/svg" viewBox="0 0 184.67 184.67"><defs><style>.cls-1{fill:#c02026;}.cls-2{font-size:25px;font-family:MyriadPro-Light, Myriad Pro;font-weight:300;letter-spacing:0.05em;}.cls-2,.cls-6{fill:#fff;}.cls-3{letter-spacing:0.04em;}.cls-4{letter-spacing:0.06em;}.cls-5{letter-spacing:0.05em;}</style></defs><g id="Layer_2" data-name="Layer 2"><g id="Layer_1-2" data-name="Layer 1"><rect class="cls-1" width="184.67" height="184.67"/><text class="cls-2" transform="translate(47.1 155.74)">Li<tspan class="cls-3" x="18.92" y="0">f</tspan><tspan x="26.35" y="0">es</tspan><tspan class="cls-4" x="50.3" y="0">t</tspan><tspan class="cls-5" x="59.55" y="0">yle</tspan></text><path class="cls-6" d="M100.12,45.24a2.45,2.45,0,0,1,1.63,2.66c-.06,1.46,0,2.93,0,4.44l1.32.5A26.7,26.7,0,0,1,110.25,57a1,1,0,0,0,.9.23,4.43,4.43,0,0,1,4,1.27,15.47,15.47,0,0,1,2.44-1.17,4.34,4.34,0,0,1,4.91,2,4.44,4.44,0,0,1-.48,5.3c-1,1.07-2,2.09-3.09,3.11a.66.66,0,0,0-.19.81c.3.78.56,1.57.8,2.37s0,1.25-.64,1.4-1-.19-1.17-.85l-.61-1.89c-.37.37-.67.67-1,1-.63.61-1.06.63-1.67,0-1.89-1.89-3.77-3.8-5.68-5.68a4.59,4.59,0,0,1,.08-6.58,24.25,24.25,0,0,0-7.08-3.9,6.9,6.9,0,0,1-.47.81,2,2,0,0,1-1.73.84H94.24v1.41c.67,0,1.33,0,2,0a1,1,0,0,1,1,1.13.92.92,0,0,1-1,.79c-2,0-4.06,0-6.08,0a.91.91,0,0,1-1-1,.94.94,0,0,1,1-.92c.66,0,1.33,0,2,0V56H89.65c-.77,0-1.55,0-2.32,0a2.29,2.29,0,0,1-2.57-1.67,24.52,24.52,0,0,0-7.11,3.91.85.85,0,0,0-.22.6c0,1.42,0,2.84,0,4.26,0,.91-.14,1.82-.22,2.8.29,0,.69,0,1.1,0a.85.85,0,0,1,.93.83,8,8,0,0,1-.17,2.35,2.94,2.94,0,0,1-3,2c-2.17,0-4.35,0-6.52,0-.44,0-.65.1-.77.58a26.92,26.92,0,0,0-.86,6.75c0,.37.13.49.48.65a4.19,4.19,0,0,0,3.35,0,7.31,7.31,0,0,1,6.1.7,1.4,1.4,0,0,1,.76,1.33c0,2.88,0,5.77,0,8.65A1.16,1.16,0,0,1,76.7,91a6.11,6.11,0,0,0-5.51-.12l1,1.65c.42.66.37,1.2-.15,1.53s-1,.15-1.42-.46-.85-1.45-1.33-2.13a2.18,2.18,0,0,0-.9-.78,5.84,5.84,0,0,0-4.85.23c-1.24.6-2,.15-2-1.22,0-2.78,0-5.56,0-8.34a1.41,1.41,0,0,1,.93-1.53c1.1-.41,2.22-.77,3.32-1.15l.88-7.48s-.17,0-.34-.08a3,3,0,0,1-2.52-2.86c0-.39,0-.79,0-1.19,0-.78.34-1.1,1.11-1.11.33,0,.67,0,1.06,0a7,7,0,0,0-.3-1.16c-.06-.14-.36-.22-.55-.23a2.86,2.86,0,0,1-2.8-2.17A2.79,2.79,0,0,1,65,58.92h.54a6,6,0,0,1,.26-1.05,1.71,1.71,0,0,1,1.77-.93q4.06,0,8.15,0a1.75,1.75,0,0,0,1-.32,26.71,26.71,0,0,1,7.53-4,.66.66,0,0,0,.53-.76c0-1.29,0-2.59,0-3.88a2.5,2.5,0,0,1,1.6-2.69h3.14c.42.32.77.67.54,1.26s-.69.65-1.23.63-1,0-1.5,0-.62.13-.61.6c0,1.94,0,3.88,0,5.83,0,.45.1.62.59.62q6,0,12,0c.46,0,.62-.13.62-.59,0-2,0-3.89,0-5.83,0-.52-.2-.63-.67-.63-1.8,0-3.6,0-5.39,0a1.4,1.4,0,0,1-1-.48c-.39-.55,0-1,.42-1.38Zm15.11,23.43c.15-.14.27-.23.37-.33l4.7-4.7a2.61,2.61,0,1,0-3.66-3.7c-1.39,1.34-1.39,1.34-2.78,0a2.61,2.61,0,1,0-3.68,3.68c.88.89,1.77,1.77,2.66,2.66ZM67.58,58.91a1.11,1.11,0,0,0-.06.27c0,1.59,0,3.18,0,4.76a5.41,5.41,0,0,0,.36,1.45.8.8,0,0,0,.9.57c1.72,0,3.43,0,5.15,0,1,0,1.11-.11,1.41-1a1.71,1.71,0,0,0,.13-.54c0-1.81,0-3.62,0-5.47Zm1.53,29.82c0-2.3,0-4.64,0-7,0-.17-.24-.42-.43-.5a5.92,5.92,0,0,0-4.74,0,.63.63,0,0,0-.46.69c0,1.49,0,3,0,4.46v2.37a23.23,23.23,0,0,1,2.77-.34A23.19,23.19,0,0,1,69.11,88.73Zm7.54.14c0-2.44,0-4.77,0-7.11a.69.69,0,0,0-.37-.48,5.85,5.85,0,0,0-4.91,0,.63.63,0,0,0-.34.43c0,2.36,0,4.71,0,7.15A8.55,8.55,0,0,1,76.65,88.87Zm.64-21H65.77c-.07.93.31,1.37,1.2,1.37h9.14C77,69.23,77.32,68.83,77.29,67.86ZM65.58,62.6V60.84c-.53-.09-1-.06-1.27.44a1.2,1.2,0,0,0,0,.93C64.58,62.69,65.08,62.66,65.58,62.6Z"/><path class="cls-6" d="M99.07,92.52c-1,2.56-2,3.45-4.87,4.36v11.2a2.56,2.56,0,0,1,0,.62.9.9,0,0,1-1,.77.88.88,0,0,1-.87-.83,5.08,5.08,0,0,1,0-.68V96.86a6.21,6.21,0,0,1-4.87-4.38l-2.24.46-2.75.61a3.82,3.82,0,0,0-3.24,4q0,5.2,0,10.41c0,.19,0,.38,0,.57a.94.94,0,1,1-1.87,0c0-1.17,0-2.35,0-3.52s0-2.59,0-3.89a1.19,1.19,0,0,0-.53-1.09c-1-.78-1.91-1.62-2.83-2.46a1,1,0,0,1-.17-1.48c.4-.42,1-.36,1.49.12s1.25,1.17,2,1.84c0-.61,0-1.1.11-1.57a5.7,5.7,0,0,1,4.74-4.79Q85,91.06,88,90.39a1.37,1.37,0,0,0,1.27-1.57v-.13A8.24,8.24,0,0,0,89.13,86c-.3-.78-1.15-1.35-1.78-2a1,1,0,0,0-.6-.23,8.57,8.57,0,0,1-7.55-8.67,9.54,9.54,0,0,1,.49-2.63,23.78,23.78,0,0,1,1.17-2.76.94.94,0,1,1,1.73.75c-.34.85-.75,1.67-1.07,2.53a6.6,6.6,0,0,0,3.81,8.45l.56.19a23.59,23.59,0,0,1-.59-2.71c-.11-1.22-.1-2.46-.1-3.69,0-.54.42-.85,1-.85,1.17,0,2.35,0,3.52,0a4.49,4.49,0,0,0,3.93-2.07,20.42,20.42,0,0,1-2.06-1.47,4.3,4.3,0,0,1-1.35-3.07,1,1,0,1,1,1.91-.16,2.92,2.92,0,0,0,3.18,2.83c1.07,0,2.14,0,3.2,0a2.49,2.49,0,0,1,2.72,2.74c0,1.4.08,2.81,0,4.2s-.36,2.79-.55,4.19a1.87,1.87,0,0,0,.32-.09,6.48,6.48,0,0,0,4.09-7.78,19.21,19.21,0,0,0-3.1-6.52,11.09,11.09,0,0,0-16.89-.83c-.14.15-.28.31-.43.45a.94.94,0,1,1-1.38-1.27,12.26,12.26,0,0,1,3.78-3.05A13,13,0,0,1,105,68.37a28.37,28.37,0,0,1,2,5,8.43,8.43,0,0,1-6.9,10.22,1.58,1.58,0,0,0-1.35.74,2.19,2.19,0,0,1-.68.74,2,2,0,0,0-.88,2.09,12.49,12.49,0,0,1,0,1.5c0,1.08.35,1.49,1.42,1.72l5.86,1.28a5.68,5.68,0,0,1,4.67,5.77c0,.12,0,.25,0,.55a25.51,25.51,0,0,0,6.49-7.86c-1.66,0-3.2,0-4.74,0a4.19,4.19,0,0,1-3.17-1.53,4,4,0,0,1-1.06-2.5,29.09,29.09,0,0,1,0-4.07,4.38,4.38,0,0,1,4.55-4c2.2,0,4.39,0,6.59,0h.67c0-.69,0-1.31,0-1.93s.25-1.18.84-1.22,1,.35,1.06,1.12c0,.23,0,.46,0,.69,0,1.08.06,2.07,1.2,2.75a2.76,2.76,0,0,1,1.17,2.21,42.88,42.88,0,0,1,0,4.81,4,4,0,0,1-2,3.06.84.84,0,0,0-.38.56,1.84,1.84,0,0,1-3.29,1.37,4.65,4.65,0,0,0-.31.46,28.07,28.07,0,0,1-7.31,8.26,1.22,1.22,0,0,0-.4.82c0,2.34,0,4.68,0,7,0,.21,0,.42,0,.63a.87.87,0,0,1-.84.85.89.89,0,0,1-1-.75,2.53,2.53,0,0,1,0-.62V97.5a3.74,3.74,0,0,0-3-3.9c-1.62-.38-3.26-.72-4.89-1.07A1.21,1.21,0,0,0,99.07,92.52ZM87.13,76.12a9.09,9.09,0,0,0,5.27,9.49,1.91,1.91,0,0,0,1.68,0,8.19,8.19,0,0,0,5-6.11,46.37,46.37,0,0,0,.26-6.68c0-.16-.41-.46-.65-.48-.77-.06-1.54,0-2.32,0a.77.77,0,0,0-.81.48,5.87,5.87,0,0,1-4.6,3.3A30.52,30.52,0,0,1,87.13,76.12ZM118.54,90a1.67,1.67,0,0,0,0-.33A1.45,1.45,0,0,1,119.63,88a2.06,2.06,0,0,0,1.34-1.9,35.69,35.69,0,0,0,0-3.87A2.35,2.35,0,0,0,118.57,80c-2.51,0-5,0-7.52,0a2.41,2.41,0,0,0-2.45,2.48c0,1.1,0,2.21,0,3.32a2.5,2.5,0,0,0,2.63,2.51,28.45,28.45,0,0,0,3.2,0A3.79,3.79,0,0,1,118,89.58,4.25,4.25,0,0,0,118.54,90ZM91.14,87.1v1.79a3.11,3.11,0,0,1-1.45,2.81c-.42.26-.4.49-.24.86a4.18,4.18,0,0,0,4.72,2.33,3.9,3.9,0,0,0,3-3c-2-1-1.82-2.9-1.78-4.82A3.83,3.83,0,0,1,91.14,87.1Z"/><path class="cls-6" d="M101.27,104.73c0-1.23,0-2.46,0-3.7,0-.78.52-1.23,1.19-1.07s.73.61.73,1.16v5.38c0,.62,0,1.25,0,1.87s-.37,1.1-.94,1.11-1-.41-1-1.12C101.26,107.15,101.27,105.94,101.27,104.73Z"/><path class="cls-6" d="M85.18,104.71v3.63c0,.72-.36,1.14-1,1.14s-.93-.41-.94-1.15v-7.26c0-.75.33-1.13.94-1.13s.94.41,1,1.14Z"/><path class="cls-6" d="M90,106.16a1,1,0,0,1,.94,1,1,1,0,0,1-1,.92,1,1,0,0,1-.89-1A1,1,0,0,1,90,106.16Z"/><path class="cls-6" d="M90.92,99.11a1,1,0,0,1-1,.87A.91.91,0,0,1,89,99a1,1,0,0,1,1-.86A1,1,0,0,1,90.92,99.11Z"/><path class="cls-6" d="M89.94,102.13a1,1,0,1,1,0,1.9,1,1,0,0,1,0-1.9Z"/><path class="cls-6" d="M93.24,83c-.77-.24-1.52-.42-2.22-.71a.94.94,0,1,1,.82-1.69,3.09,3.09,0,0,0,2.78,0A.94.94,0,0,1,96,81a.9.9,0,0,1-.51,1.29C94.75,82.57,94,82.75,93.24,83Z"/></g></g></svg>