<svg xmlns="http://www.w3.org/2000/svg" viewBox="0 0 184.67 184.67"><defs><style>.cls-1{fill:#c02026;}.cls-2,.cls-3{fill:#fff;}.cls-3{font-size:25px;font-family:MyriadPro-Light, Myriad Pro;font-weight:300;letter-spacing:0.02em;}.cls-4{letter-spacing:0.05em;}.cls-5{letter-spacing:0.08em;}.cls-6{letter-spacing:0.05em;}.cls-7{letter-spacing:0.04em;}</style></defs><g id="Layer_2" data-name="Layer 2"><g id="Layer_1-2" data-name="Layer 1"><rect class="cls-1" width="184.67" height="184.67"/><path class="cls-2" d="M78.2,60.16h37.17c1.38,0,1.62.23,1.62,1.62V82.9l.58-.55,3.64-3.64c.35-.35.71-.64,1.25-.42s.66.66.66,1.2q0,14.28,0,28.54c0,1-.35,1.29-1.32,1.29q-25.8,0-51.61,0c-1,0-1.36-.33-1.36-1.33s0-2.31,0-3.47a.65.65,0,0,0-.47-.74,10.66,10.66,0,0,1-6.79-10.1V59.07a10.76,10.76,0,0,1,15.87-9.48,1.31,1.31,0,0,1,.78,1.28c0,2.84,0,5.67,0,8.5Zm0,2V85c0,1.23-.67,1.63-1.77,1.06a8.29,8.29,0,0,0-3.79-1,8.77,8.77,0,0,0-7.92,13.1,8.27,8.27,0,0,0,4,3.64,1.59,1.59,0,0,0,.08-.22c.11-1.12.35-1.34,1.48-1.34H99.07a1.41,1.41,0,0,0,1.09-.45q7.16-7.18,14.34-14.34a1.38,1.38,0,0,0,.46-1.08q0-10.72,0-21.46V62.2Zm-2,21.48c0-.2,0-.33,0-.45q0-15.75,0-31.51c0-.44-.19-.59-.55-.74a8.76,8.76,0,0,0-12.12,8.11c0,9.28,0,18.56,0,27.85a4.12,4.12,0,0,0,.05.45C67,83.37,71.15,82.14,76.19,83.68Zm44.94,23.6v-1.73c-1.3-.16-1.69-.39-1.67-1,0-.21.08-.53.22-.61a11.79,11.79,0,0,1,1.45-.59v-.42l0-.53c-1.29-.19-1.66-.43-1.64-1.06a.89.89,0,0,1,.22-.61,12.78,12.78,0,0,1,1.4-.58v-1c-1.18-.1-1.63-.36-1.62-1,0-1.09.9-1,1.63-1.11V96c-1.21-.13-1.58-.36-1.64-1s.28-.87,1.64-1.16V92.74c-1.19-.1-1.64-.34-1.63-1,0-1.09.88-1.06,1.63-1.07V89.54c-1.25-.14-1.65-.39-1.63-1,0-.22.08-.53.23-.61a10,10,0,0,1,1.4-.57v-1c-1.27-.17-1.66-.41-1.63-1,0-.21.08-.53.23-.61a10.91,10.91,0,0,1,1.39-.57V82L95.82,107.28Zm-26.1-5c-.08.79.15,1.81-1,1.83s-1-1.07-1.09-1.86H90.54c-.1,0-.2,0-.37.05,0,.47,0,.92,0,1.37,0,.79-.38,1.22-1,1.22s-1-.44-1-1.22c0-.46,0-.93,0-1.38H85.36c0,.77.15,1.75-.94,1.82-1.3.08-1-1-1.16-1.82H80.6s-.06.07-.06.08c0,.46,0,.91,0,1.36,0,.74-.41,1.16-1,1.16s-1-.42-1-1.16c0-.47,0-.94,0-1.44H75.72c-.14,1.49-.34,1.83-1,1.84s-.89-.31-1.09-1.84H70.88v5l.52,0q10.35,0,20.72,0a1.32,1.32,0,0,0,.85-.37c1.45-1.41,2.88-2.85,4.31-4.29.09-.09.17-.2.32-.37Z"/><path class="cls-2" d="M96,58.59H83.59A3.36,3.36,0,0,1,80,55.93a6.82,6.82,0,0,1,0-2.7,3.41,3.41,0,0,1,3.54-2.7h11c4.64,0,9.27,0,13.9,0a3.14,3.14,0,0,1,1.4.37c1.54.84,3,1.74,4.56,2.62,1.06.61,1.06,1.45,0,2.06-1.51.88-3,1.78-4.56,2.62a3.15,3.15,0,0,1-1.34.36C104.39,58.6,100.19,58.59,96,58.59Zm12-6H84a6,6,0,0,0-.74,0A1.47,1.47,0,0,0,81.91,54c0,.23,0,.46,0,.68,0,1.38.54,1.92,1.91,1.92H108Zm2.11.78v2.5l2.17-1.25Z"/><path class="cls-2" d="M94.93,65.94c.42-.73.78-1.37,1.16-2,.48-.81.93-.94,1.74-.47l12.39,7.16c.8.46.91.92.45,1.74s-1,1.73-1.5,2.57a.74.74,0,0,0,0,.89c.52.85,1,1.71,1.5,2.58s.38,1.35-.44,1.67c-1.29.52-1.56,1.4-1.5,2.69.11,2.31,0,4.63.05,6.95a1.63,1.63,0,0,1-.91,1.6q-6.07,3.47-12.12,7a1.48,1.48,0,0,1-1.67,0q-6.07-3.54-12.18-7a1.55,1.55,0,0,1-.86-1.5c0-2.77,0-5.54,0-8.31a.74.74,0,0,0-.44-.78c-.36-.17-.69-.38-1-.58a1,1,0,0,1-.45-1.65c.51-.9,1-1.8,1.55-2.68a.65.65,0,0,0,0-.78c-.54-.88-1-1.79-1.55-2.68a1,1,0,0,1,.43-1.66l12.5-7.22c.74-.43,1.2-.29,1.64.46Zm10.79,9.46a1.37,1.37,0,0,0-.24-.19q-5.12-3-10.24-5.9a.85.85,0,0,0-.71,0q-5,2.83-9.92,5.71l-.49.32,10.52,6a.76.76,0,0,0,.61,0C98.72,79.44,102.19,77.44,105.72,75.4ZM83.16,82.16a2.62,2.62,0,0,0-.06.36c0,2.23,0,4.46,0,6.7a1,1,0,0,0,.42.64l10,5.77.4.18V86.72c-.8,1-1.06,1-2.12.4l-5.68-3.28ZM96,95.8a1.65,1.65,0,0,0,.21-.07c3.42-2,6.84-3.93,10.24-5.92a1,1,0,0,0,.33-.7c0-2.15,0-4.3,0-6.45,0-.15,0-.3,0-.49l-.71.39Q102,84.84,98.11,87.1a2,2,0,0,1-1.14.37c-.36,0-.69-.4-1-.61ZM93.55,83.15l-11.1-6.41-1.16,2,11.1,6.41ZM82.45,74l11.1-6.41-1.16-2L81.29,72Zm26.11-2-11.1-6.41-1.16,2L107.4,74Zm-1.16,4.76L96.3,83.15l1.16,2,11.11-6.41Z"/><path class="cls-2" d="M110.64,105c-2.31,0-4.63,0-6.94,0a1.11,1.11,0,0,1-1.17-.63,1.08,1.08,0,0,1,.38-1.26q7-7,14-14a1,1,0,0,1,1.86.77v14c0,.86-.35,1.19-1.22,1.19Zm6.14-12.66L106.16,103h10.62Z"/><text class="cls-3" transform="translate(36.09 155.74)">P<tspan class="cls-4" x="13.05" y="0">ac</tspan><tspan class="cls-5" x="38.05" y="0">k</tspan><tspan class="cls-6" x="50.52" y="0">a</tspan><tspan class="cls-7" x="63.12" y="0">g</tspan><tspan class="cls-4" x="77.77" y="0">ing</tspan></text></g></g></svg>