<svg xmlns="http://www.w3.org/2000/svg" viewBox="0 0 184.67 184.67"><defs><style>.cls-1{fill:#c02026;}.cls-2,.cls-3{fill:#fff;}.cls-3{font-size:25px;font-family:MyriadPro-Light, Myriad Pro;font-weight:300;letter-spacing:0.06em;}.cls-4{letter-spacing:0.05em;}.cls-5{letter-spacing:0.04em;}</style></defs><g id="Layer_2" data-name="Layer 2"><g id="Layer_1-2" data-name="Layer 1"><rect class="cls-1" width="184.67" height="184.67"/><path class="cls-2" d="M117.91,67.84c.53,1.87,1,3.65,1.54,5.43q1.76,6.11,3.52,12.22c.34,1.17.13,1.57-1,1.9l-23.8,6.85c-1,.28-1.42,0-1.71-1-1.3-4.49-2.59-9-3.91-13.57-.18.14-.32.25-.46.38A16.93,16.93,0,0,1,81.29,84.8c-.46,0-.53.3-.64.6q-3.47,9.52-6.92,19.06a2.42,2.42,0,0,1-1.14,1.37c-2.14,1.21-4.25,2.46-6.37,3.7-1,.6-1.62.39-2-.75-.85-2.37-1.73-4.73-2.54-7.11a2.56,2.56,0,0,1,0-1.4c.27-.93.69-1.82,1-2.75a1.9,1.9,0,0,1,1.24-1.34c.41-.15.8-.37,1.26-.58-.26-.56-.5-1.07-.73-1.59A1.12,1.12,0,0,1,65,92.33l1.57-.73c-.25-.53-.48-1-.7-1.52a1.14,1.14,0,0,1,.64-1.77c.47-.23,1-.45,1.5-.7a12.28,12.28,0,0,0-.6-1.32,1.9,1.9,0,0,1-.07-1.72c.45-1.17.85-2.37,1.31-3.54a.76.76,0,0,0-.22-1,16.78,16.78,0,0,1-5.07-10,17,17,0,0,1,9.7-17.66,16.54,16.54,0,0,1,11.58-1,.92.92,0,0,0,1-.25A11.66,11.66,0,0,1,104,55.13a1.49,1.49,0,0,0,.91.86l15.36,5.84c1.14.43,1.32.84.89,2s-.8,2.1-1.21,3.15S119.14,68.2,117.91,67.84Zm-52,39.41c1.76-1,3.47-2,5.15-3a1.85,1.85,0,0,0,.77-.91q3.6-9.78,7.15-19.59a1.35,1.35,0,0,1,1.43-1,12.06,12.06,0,0,0,2.25-.18c6.08-1.23,10.25-4.73,11.89-10.76s-.11-11.09-4.69-15.23a12.82,12.82,0,0,0-4-2.43c-.23.33-.42.6-.6.88s-.33.6-.5.89c2.12,1.15,3.06,3,2.59,5a4.27,4.27,0,0,1-8.4-.55,4.3,4.3,0,0,1,3.13-4.52c.16-.05.4-.09.46-.2.39-.71.74-1.43,1.11-2.16A14.84,14.84,0,0,0,70.57,79.12c.7.6.76.88.45,1.74A15.73,15.73,0,0,1,70.23,83a4.15,4.15,0,0,0,.13,4.57c.47.71.17,1.29-.61,1.67l-1.55.73c.26.58.5,1.07.72,1.58a1.11,1.11,0,0,1-.62,1.68c-.5.25-1,.48-1.56.73.24.53.45,1,.67,1.45.43.94.3,1.55-.67,1.84a3.88,3.88,0,0,0-2.86,3.24.6.6,0,0,0-.06.19,1.84,1.84,0,0,0,0,.7C64.49,103.29,65.19,105.21,65.93,107.25Zm54.76-21.71c0-.2,0-.31-.08-.41-1.71-6-3.41-11.92-5.15-17.88a1.07,1.07,0,0,0-.59-.59c-4.2-1.62-8.41-3.21-12.61-4.83a.63.63,0,0,0-.88.25c-1.23,1.68-2.51,3.32-3.74,5a2.19,2.19,0,0,0-.39,1.13,16.46,16.46,0,0,1-2.73,8.87,1.33,1.33,0,0,0-.19,1.22q1.74,6,3.44,12c.16.57.34,1.13.52,1.72l5.07-1.46c-1.25-4.36-2.47-8.62-3.7-12.89-.3-1.07-.06-1.52,1-1.82l9.49-2.72c1.07-.3,1.51-.06,1.82,1l2,7.07c.55,1.92,1.11,3.85,1.68,5.82Zm-10.62-10.2-8.15,2.35,3.52,12.24,8.14-2.34Zm-8.9-20.69a9.37,9.37,0,0,0-13.58-2.17C92,55.17,92,55.17,95.21,59.67c.89-1.17,1.79-2.31,2.65-3.49A3.38,3.38,0,0,1,101.17,54.65Zm17.69,9.05-.09-.11-17.64-6.71a1.17,1.17,0,0,0-1.49.5c-1,1.4-2.1,2.79-3.14,4.19-.12.15-.25.37-.21.52.18.75.42,1.5.67,2.34,1.16-1.54,2.25-3,3.35-4.43.57-.75.89-.85,1.76-.52l9.84,3.74,6.22,2.37ZM85.28,59.87a2.11,2.11,0,0,0-2.1-2.12,2.15,2.15,0,0,0-2.11,2.12,2.11,2.11,0,1,0,4.21,0Z"/><text class="cls-3" transform="translate(32.71 155.74)">R<tspan class="cls-4" x="14" y="0">eal Esta</tspan><tspan class="cls-5" x="98.3" y="0">t</tspan><tspan class="cls-4" x="107.12" y="0">e</tspan></text></g></g></svg>