<svg xmlns="http://www.w3.org/2000/svg" viewBox="0 0 184.67 184.67"><defs><style>.cls-1{fill:#c02026;}.cls-2{font-size:25px;font-family:MyriadPro-Light, Myriad Pro;font-weight:300;letter-spacing:0.05em;}.cls-2,.cls-3{fill:#fff;}</style></defs><g id="Layer_2" data-name="Layer 2"><g id="Layer_1-2" data-name="Layer 1"><rect class="cls-1" width="184.67" height="184.67"/><text class="cls-2" transform="translate(60.34 155.74)">UX/UI</text><path class="cls-3" d="M123.12,91.23c-.1.43-.19.86-.3,1.28a10.38,10.38,0,0,1-10,7.86q-20.55,0-41.11,0a10.35,10.35,0,0,1-10.1-10.11c0-.84.31-1.17,1.14-1.17,1,0,2.08,0,3.19,0v-.75q0-16.14,0-32.28a12.13,12.13,0,0,1,2.76-7.95,7.45,7.45,0,0,1,6-2.86q17.67,0,35.35,0a7.74,7.74,0,0,1,6.73,3.82,12.47,12.47,0,0,1,2,7q0,16.08,0,32.16v.82c1,0,2,0,3,0a1.32,1.32,0,0,1,1.28.6ZM96.85,92.78c0-.84,0-1.64,0-2.44,0-1,.28-1.26,1.3-1.26h18.71c0-.2,0-.33,0-.47,0-11,0-22,0-32.94a10.07,10.07,0,0,0-1.45-5.2,5.94,5.94,0,0,0-5-3.32c-.56,0-1.12,0-1.68,0q-17,0-34,0a5.5,5.5,0,0,0-3.87,1.35,9.29,9.29,0,0,0-3.06,7.07c-.06,11,0,22,0,33.06,0,.14,0,.27,0,.47H86.52c1,0,1.25.27,1.25,1.25v2.45ZM63.32,91a23.14,23.14,0,0,0,1.18,3.09,8.4,8.4,0,0,0,7.88,4.46h39.3c.64,0,1.28,0,1.92-.07A8.52,8.52,0,0,0,121.16,91H98.74v2.39c0,1-.31,1.32-1.34,1.32H87.25c-1,0-1.31-.27-1.32-1.32V91Z"/><path class="cls-3" d="M92.28,63.22H74.68c-.76,0-1.11-.3-1.1-.95a.86.86,0,0,1,.77-.92,3.61,3.61,0,0,1,.66,0h34.61a3.29,3.29,0,0,1,.83.07.94.94,0,0,1-.2,1.82h-18Z"/><path class="cls-3" d="M92.36,56.14h17.36a2.88,2.88,0,0,1,.72,0,.85.85,0,0,1,.65.9.82.82,0,0,1-.62.85,2,2,0,0,1-.59.08H74.78a1.87,1.87,0,0,1-.53-.05.93.93,0,0,1,.08-1.81,3.61,3.61,0,0,1,.66,0Z"/><path class="cls-3" d="M93.2,73.84c0-1,0-1.93,0-2.89,0-.74.33-1.12,1-1.11s.93.37.93,1.13c0,1.86,0,3.72,0,5.59,0,1,.58,1.49,1.68,1.47a1.41,1.41,0,0,0,1.58-1.53c0-1.9,0-3.8,0-5.7a.94.94,0,0,1,1.87-.12c0,2.18.07,4.37-.09,6.54C100,79,98.39,80,96.36,79.92a3.2,3.2,0,0,1-3.16-3.14C93.17,75.8,93.2,74.82,93.2,73.84Z"/><path class="cls-3" d="M74.9,73.27v-3c0-.69.3-1,.89-1s.94.3.95,1c0,1.82,0,3.64,0,5.46,0,.65,0,1.22.69,1.53a1.94,1.94,0,0,0,2-.09A1.27,1.27,0,0,0,80,75.9c0-1.84,0-3.68,0-5.53,0-.8.33-1.15,1-1.14a.81.81,0,0,1,.9.84c0,2.14.06,4.29,0,6.43-.08,1.85-2.09,3.15-4.11,2.77a3.13,3.13,0,0,1-2.84-3.42Z"/><path class="cls-3" d="M105.84,76.49l-2.18,2.93a.87.87,0,0,1-1.18.39.91.91,0,0,1-.32-1.49c.74-1,1.48-2,2.26-3a.56.56,0,0,0,0-.82c-.69-.93-1.36-1.88-2-2.83-.55-.75-.55-1.22,0-1.61s1-.22,1.53.5l2,2.78L108,70.47a.94.94,0,1,1,1.55,1c-.68.94-1.35,1.9-2.08,2.79a.84.84,0,0,0,0,1.23c.71.92,1.37,1.88,2,2.84a.94.94,0,0,1-.21,1.33.9.9,0,0,1-1.31-.24c-.13-.16-.24-.33-.35-.49Z"/><path class="cls-3" d="M87.59,81.91a.93.93,0,0,1-.91-1.25c.47-1.84,1-3.67,1.45-5.5L90.05,68a.94.94,0,0,1,1.84-.06,1.79,1.79,0,0,1-.07.76c-.73,2.74-1.47,5.48-2.2,8.21-.37,1.39-.75,2.78-1.11,4.17A1,1,0,0,1,87.59,81.91Z"/><path class="cls-3" d="M83.69,74.24c0-1.3,0-2.61,0-3.91,0-.73.34-1.11,1-1.1s.93.39.93,1.08v7.82c0,.7-.38,1.15-.94,1.16s-1-.44-1-1.14C83.68,76.84,83.69,75.54,83.69,74.24Z"/></g></g></svg>